<svg width="20" height="20" viewBox="0 0 20 20" fill="none" xmlns="http://www.w3.org/2000/svg">
<path d="M1.66667 10.0002C1.66667 6.85747 1.66667 5.28612 2.64298 4.30981C3.61929 3.3335 5.19064 3.3335 8.33333 3.3335H11.6667C14.8094 3.3335 16.3807 3.3335 17.357 4.30981C18.3333 5.28612 18.3333 6.85747 18.3333 10.0002C18.3333 13.1429 18.3333 14.7142 17.357 15.6905C16.3807 16.6668 14.8094 16.6668 11.6667 16.6668H8.33333C5.19064 16.6668 3.61929 16.6668 2.64298 15.6905C1.66667 14.7142 1.66667 13.1429 1.66667 10.0002Z" stroke="#3FD590"/>
<path d="M8.33333 13.3335H5" stroke="#3FD590" stroke-linecap="round"/>
<path d="M11.6667 13.3335H10.4167" stroke="#3FD590" stroke-linecap="round"/>
<path d="M1.66667 8.3335L18.3333 8.3335" stroke="#3FD590" stroke-linecap="round"/>
</svg>
