<svg width="18" height="18" viewBox="0 0 18 18" fill="none" xmlns="http://www.w3.org/2000/svg">
<path d="M11.25 13.5V14.2501C11.25 15.0785 10.5784 15.7501 9.75 15.7501H3.75C2.92157 15.7501 2.25 15.0785 2.25 14.2501V8.25002C2.25 7.42163 2.92153 6.75006 3.74994 6.75003L4.5 6.75M11.25 6.75009V4.87509M11.25 6.75009V8.62509M11.25 6.75009H9.375M11.25 6.75009H13.125M8.25 2.25H14.25C15.0784 2.25 15.75 2.92157 15.75 3.75V9.75002C15.75 10.5784 15.0784 11.25 14.25 11.25H8.25C7.42157 11.25 6.75 10.5784 6.75 9.75002V3.75C6.75 2.92157 7.42157 2.25 8.25 2.25Z"  stroke-linecap="round"/>
</svg>
