<svg width="20" height="20" viewBox="0 0 20 20" fill="none" xmlns="http://www.w3.org/2000/svg">
<path d="M9.16667 14.1667H6.66667C4.30965 14.1667 3.13113 14.1667 2.3989 13.4345C1.66667 12.7023 1.66667 11.5238 1.66667 9.16675V8.33341C1.66667 5.19072 1.66667 3.61937 2.64298 2.64306C3.61929 1.66675 5.19064 1.66675 8.33333 1.66675H12.9167C14.8622 1.66675 15.835 1.66675 16.5713 2.06034C17.1527 2.37112 17.629 2.84733 17.9397 3.42876C18.3333 4.16512 18.3333 5.13789 18.3333 7.08341" stroke="white" stroke-linecap="round"/>
<path d="M11.6667 12.5001C11.6667 10.9287 11.6667 10.1431 12.1548 9.6549C12.643 9.16675 13.4286 9.16675 15 9.16675C16.5713 9.16675 17.357 9.16675 17.8452 9.6549C18.3333 10.1431 18.3333 10.9287 18.3333 12.5001V15.0001C18.3333 16.5714 18.3333 17.3571 17.8452 17.8453C17.357 18.3334 16.5713 18.3334 15 18.3334C13.4286 18.3334 12.643 18.3334 12.1548 17.8453C11.6667 17.3571 11.6667 16.5714 11.6667 15.0001V12.5001Z" stroke="white"/>
<path d="M15.8333 16.6667H14.1667" stroke="white" stroke-linecap="round"/>
<path d="M9.16666 18.3333H6.66666" stroke="white" stroke-linecap="round"/>
<path d="M9.16666 18.3334V14.1667" stroke="white" stroke-linecap="round"/>
<path d="M9.16667 10.8333H1.66667" stroke="white" stroke-linecap="round"/>
</svg>
