<svg width="32" height="32" viewBox="0 0 32 32" fill="none" xmlns="http://www.w3.org/2000/svg">
<rect width="32" height="32" rx="6" fill="#3FD590" fill-opacity="0.13"/>
<path d="M18.8275 9.37812L18.493 9.74977V9.74977L18.8275 9.37812ZM22.1264 12.3472L21.7919 12.7188V12.7188L22.1264 12.3472ZM24.045 14.4618L23.5883 14.6652V14.6652L24.045 14.4618ZM8.64298 23.3571L8.99653 23.0035H8.99653L8.64298 23.3571ZM23.357 23.3571L23.0035 23.0035V23.0035L23.357 23.3571ZM17.6667 24.3334V23.8334H14.3333V24.3334V24.8334H17.6667V24.3334ZM7.66667 17.6667H8.16667V14.3334H7.66667H7.16667V17.6667H7.66667ZM24.3333 17.3025H23.8333V17.6667H24.3333H24.8333V17.3025H24.3333ZM18.8275 9.37812L18.493 9.74977L21.7919 12.7188L22.1264 12.3472L22.4609 11.9756L19.1619 9.00647L18.8275 9.37812ZM24.3333 17.3025H24.8333C24.8333 15.8845 24.8434 15.0256 24.5018 14.2584L24.045 14.4618L23.5883 14.6652C23.8232 15.1929 23.8333 15.7962 23.8333 17.3025H24.3333ZM22.1264 12.3472L21.7919 12.7188C22.9116 13.7265 23.3533 14.1376 23.5883 14.6652L24.045 14.4618L24.5018 14.2584C24.1601 13.4912 23.5149 12.9242 22.4609 11.9756L22.1264 12.3472ZM14.3582 7.66675V8.16675C15.6669 8.16675 16.1919 8.17447 16.6619 8.35482L16.841 7.88801L17.0202 7.4212C16.3369 7.15903 15.5911 7.16675 14.3582 7.16675V7.66675ZM18.8275 9.37812L19.1619 9.00647C18.25 8.1857 17.7033 7.68335 17.0202 7.4212L16.841 7.88801L16.6619 8.35482C17.132 8.53521 17.5252 8.87875 18.493 9.74977L18.8275 9.37812ZM14.3333 24.3334V23.8334C12.7479 23.8334 11.609 23.8324 10.7424 23.7158C9.89012 23.6012 9.3763 23.3833 8.99653 23.0035L8.64298 23.3571L8.28943 23.7107C8.88596 24.3072 9.64598 24.5774 10.6091 24.7069C11.5579 24.8345 12.7761 24.8334 14.3333 24.8334V24.3334ZM7.66667 17.6667H7.16667C7.16667 19.224 7.16561 20.4422 7.29317 21.3909C7.42266 22.3541 7.69289 23.1141 8.28943 23.7107L8.64298 23.3571L8.99653 23.0035C8.61676 22.6238 8.39883 22.11 8.28425 21.2577C8.16773 20.391 8.16667 19.2522 8.16667 17.6667H7.66667ZM17.6667 24.3334V24.8334C19.2239 24.8334 20.4421 24.8345 21.3909 24.7069C22.354 24.5774 23.114 24.3072 23.7106 23.7107L23.357 23.3571L23.0035 23.0035C22.6237 23.3833 22.1099 23.6012 21.2576 23.7158C20.391 23.8324 19.2522 23.8334 17.6667 23.8334V24.3334ZM24.3333 17.6667H23.8333C23.8333 19.2522 23.8323 20.391 23.7158 21.2577C23.6012 22.11 23.3832 22.6238 23.0035 23.0035L23.357 23.3571L23.7106 23.7107C24.3071 23.1141 24.5773 22.3541 24.7068 21.3909C24.8344 20.4422 24.8333 19.224 24.8333 17.6667H24.3333ZM7.66667 14.3334H8.16667C8.16667 12.7479 8.16773 11.6091 8.28425 10.7425C8.39883 9.8902 8.61676 9.37638 8.99653 8.99661L8.64298 8.64306L8.28943 8.28951C7.69289 8.88605 7.42266 9.64606 7.29317 10.6092C7.16561 11.558 7.16667 12.7762 7.16667 14.3334H7.66667ZM14.3582 7.66675V7.16675C12.7926 7.16675 11.5684 7.1657 10.6156 7.29321C9.6489 7.42259 8.88635 7.69258 8.28943 8.28951L8.64298 8.64306L8.99653 8.99661C9.37591 8.61723 9.89133 8.39906 10.7483 8.28437C11.6193 8.1678 12.7644 8.16675 14.3582 8.16675V7.66675Z" fill="#3FD590"/>
<path d="M11 18.0833H17.6667" stroke="#3FD590" stroke-linecap="round"/>
<path d="M11 21H15.5833" stroke="#3FD590" stroke-linecap="round"/>
<path d="M16.8333 8.08325V10.1666C16.8333 12.1308 16.8333 13.1129 17.4435 13.7231C18.0537 14.3333 19.0358 14.3333 21 14.3333H24.3333" stroke="#3FD590"/>
</svg>
