<svg width="20" height="20" viewBox="0 0 20 20" fill="none" xmlns="http://www.w3.org/2000/svg">
    <path d="M4.7246 8.26197L7.27639 4.80944C8.92585 2.57773 9.75059 1.46188 10.5201 1.69768C11.2895 1.93349 11.2895 3.30208 11.2895 6.03927V6.29735C11.2895 7.2846 11.2895 7.77822 11.605 8.08785L11.6217 8.10389C11.9439 8.40697 12.4577 8.40697 13.4852 8.40697C15.3343 8.40697 16.2588 8.40697 16.5713 8.96776C16.5764 8.97705 16.5815 8.98641 16.5863 8.99584C16.8813 9.5653 16.346 10.2896 15.2754 11.7381L12.7236 15.1906C11.0741 17.4223 10.2493 18.5381 9.47987 18.3023C8.7104 18.0665 8.71042 16.6979 8.71046 13.9607L8.71046 13.7027C8.71048 12.7155 8.71048 12.2218 8.39503 11.9122L8.37834 11.8962C8.05608 11.5931 7.54232 11.5931 6.51479 11.5931C4.66573 11.5931 3.7412 11.5931 3.42875 11.0323C3.42357 11.023 3.41854 11.0136 3.41366 11.0042C3.1187 10.4347 3.654 9.71049 4.7246 8.26197Z" fill="#1CBC83"/>
</svg>
