<svg width="32" height="32" viewBox="0 0 32 32" fill="none" xmlns="http://www.w3.org/2000/svg">
<path d="M21.3333 5.33569C24.2334 5.35184 25.8039 5.48044 26.8284 6.50495C28 7.67652 28 9.56214 28 13.3334V21.3334C28 25.1046 28 26.9902 26.8284 28.1618C25.6569 29.3334 23.7712 29.3334 20 29.3334H12C8.22876 29.3334 6.34315 29.3334 5.17157 28.1618C4 26.9902 4 25.1046 4 21.3334V13.3334C4 9.56214 4 7.67652 5.17157 6.50495C6.19608 5.48044 7.76663 5.35184 10.6667 5.33569" stroke="#7F9F9C" stroke-opacity="0.7" stroke-width="1.5"/>
<path d="M14 18.6667H22.6667" stroke="#7F9F9C" stroke-opacity="0.7" stroke-width="1.5" stroke-linecap="round"/>
<path d="M9.33337 18.6667H10" stroke="#7F9F9C" stroke-opacity="0.7" stroke-width="1.5" stroke-linecap="round"/>
<path d="M9.33337 14H10" stroke="#7F9F9C" stroke-opacity="0.7" stroke-width="1.5" stroke-linecap="round"/>
<path d="M9.33337 23.3333H10" stroke="#7F9F9C" stroke-opacity="0.7" stroke-width="1.5" stroke-linecap="round"/>
<path d="M14 14H22.6667" stroke="#7F9F9C" stroke-opacity="0.7" stroke-width="1.5" stroke-linecap="round"/>
<path d="M14 23.3333H22.6667" stroke="#7F9F9C" stroke-opacity="0.7" stroke-width="1.5" stroke-linecap="round"/>
<path d="M10.6666 4.66675C10.6666 3.56218 11.5621 2.66675 12.6666 2.66675H19.3333C20.4379 2.66675 21.3333 3.56218 21.3333 4.66675V6.00008C21.3333 7.10465 20.4379 8.00008 19.3333 8.00008H12.6666C11.5621 8.00008 10.6666 7.10465 10.6666 6.00008V4.66675Z" stroke="#7F9F9C" stroke-opacity="0.7" stroke-width="1.5"/>
</svg>
