<svg width="32" height="32" viewBox="0 0 32 32" fill="none" xmlns="http://www.w3.org/2000/svg">
<rect width="32" height="32" rx="6" fill="#3FD590" fill-opacity="0.13"/>
<path d="M7.66667 15.9999C7.66667 12.8572 7.66667 11.2859 8.64298 10.3096C9.61929 9.33325 11.1906 9.33325 14.3333 9.33325H17.6667C20.8094 9.33325 22.3807 9.33325 23.357 10.3096C24.3333 11.2859 24.3333 12.8572 24.3333 15.9999C24.3333 19.1426 24.3333 20.714 23.357 21.6903C22.3807 22.6666 20.8094 22.6666 17.6667 22.6666H14.3333C11.1906 22.6666 9.61929 22.6666 8.64298 21.6903C7.66667 20.714 7.66667 19.1426 7.66667 15.9999Z" stroke="#3FD590"/>
<path d="M14.3333 19.3333H11" stroke="#3FD590" stroke-linecap="round"/>
<path d="M17.6667 19.3333H16.4167" stroke="#3FD590" stroke-linecap="round"/>
<path d="M7.66667 14.3333L24.3333 14.3333" stroke="#3FD590" stroke-linecap="round"/>
</svg>
