<svg width="100" height="100" viewBox="0 0 100 100" fill="none" xmlns="http://www.w3.org/2000/svg">
<path d="M82.3617 27.7842C81.5442 26.46 80.2017 25.4902 78.6287 25.0948C77.0521 24.6993 75.3762 24.9073 73.9654 25.6719C71.6208 26.9403 68.7942 26.9389 66.4512 25.6681L64.0229 24.3514C61.825 23.1594 60.4562 20.8597 60.4562 18.3594C60.4562 15.1719 57.7125 12.5 54.3196 12.5H45.68C42.2871 12.5 39.5432 15.1719 39.5432 18.3594C39.5432 20.8599 38.1747 23.1598 35.977 24.3527L33.5519 25.669C31.2087 26.9409 28.3813 26.942 26.0372 25.6719C24.6263 24.9073 22.947 24.6992 21.3707 25.0948C19.7975 25.4903 18.4554 26.46 17.6375 27.7842L13.3238 34.8037C12.5092 36.128 12.2875 37.7041 12.7089 39.1807C13.1303 40.6602 14.1603 41.92 15.5712 42.6846C17.8795 43.9375 19.3173 46.3533 19.3181 48.9796L19.3187 51.0204C19.3195 53.6467 17.8825 56.0625 15.5743 57.3154C14.1635 58.0829 13.1302 59.34 12.7089 60.8162C12.2875 62.2958 12.5091 63.8721 13.3238 65.1962L17.6438 72.2158C18.4584 73.54 19.8006 74.5096 21.3739 74.9054C22.9502 75.3008 24.6263 75.0929 26.0403 74.3279C28.3848 73.0596 31.2112 73.0613 33.5544 74.3321L35.9738 75.6442C38.1733 76.8371 39.5432 79.1383 39.5432 81.6408C39.5432 84.8283 42.2867 87.5 45.68 87.5H54.3171C57.7129 87.5 60.4537 84.8283 60.4537 81.6408C60.4554 79.1383 61.8267 76.8375 64.0262 75.6446L66.4483 74.3317C68.7917 73.0608 71.6183 73.0596 73.9629 74.3279C75.3767 75.0925 77.0529 75.3008 78.6262 74.9054C80.2025 74.5096 81.5446 73.54 82.3592 72.2158L86.6762 65.1962C87.4908 63.8721 87.7125 62.2958 87.2912 60.8192C86.8696 59.34 85.8396 58.08 84.4287 57.3154C82.1204 56.0625 80.6833 53.6467 80.6833 51.0204V48.9796C80.6833 46.3533 82.1204 43.9375 84.4287 42.6846C85.8396 41.9171 86.8696 40.6601 87.2912 39.1835C87.7125 37.704 87.4908 36.1279 86.6762 34.8037L82.3617 27.7842Z" stroke="#3FD590" stroke-width="3" stroke-linecap="round"/>
<path d="M62.5 50C62.5 56.9037 56.9037 62.5 50 62.5C43.0962 62.5 37.5 56.9037 37.5 50C37.5 43.0962 43.0962 37.5 50 37.5C56.9037 37.5 62.5 43.0962 62.5 50Z" stroke="#3FD590" stroke-width="3" stroke-linecap="round"/>
</svg>
