<svg width="22" height="22" viewBox="0 0 22 22" fill="none" xmlns="http://www.w3.org/2000/svg">
<circle cx="11" cy="11" r="2.75" stroke="white" stroke-width="1.5"/>
<path d="M12.6183 1.97287C12.2813 1.83331 11.8542 1.83331 11 1.83331C10.1458 1.83331 9.71866 1.83331 9.38174 1.97287C8.93253 2.15894 8.57562 2.51584 8.38955 2.96506C8.30461 3.17012 8.27137 3.40861 8.25836 3.75647C8.23925 4.26769 7.97708 4.74088 7.53404 4.99667C7.09101 5.25245 6.55013 5.24289 6.09785 5.00384C5.79008 4.84117 5.56693 4.75072 5.34687 4.72174C4.8648 4.65828 4.37726 4.78891 3.99151 5.08491C3.70219 5.30691 3.48863 5.6768 3.06152 6.41658C2.63441 7.15637 2.42085 7.52626 2.37325 7.88781C2.30979 8.36988 2.44042 8.85742 2.73642 9.24317C2.87152 9.41924 3.0614 9.56725 3.3561 9.75242C3.78932 10.0246 4.06807 10.4883 4.06805 11C4.06802 11.5116 3.78928 11.9752 3.35609 12.2474C3.06135 12.4326 2.87145 12.5806 2.73633 12.7567C2.44033 13.1425 2.3097 13.63 2.37316 14.1121C2.42076 14.4736 2.63432 14.8435 3.06143 15.5833C3.48855 16.3231 3.7021 16.693 3.99142 16.915C4.37717 17.211 4.86471 17.3416 5.34678 17.2782C5.56683 17.2492 5.78997 17.1587 6.09771 16.9961C6.55002 16.757 7.09094 16.7475 7.534 17.0033C7.97706 17.2591 8.23924 17.7323 8.25836 18.2435C8.27137 18.5914 8.30462 18.8298 8.38955 19.0349C8.57562 19.4841 8.93253 19.841 9.38174 20.0271C9.71866 20.1666 10.1458 20.1666 11 20.1666C11.8542 20.1666 12.2813 20.1666 12.6183 20.0271C13.0675 19.841 13.4244 19.4841 13.6104 19.0349C13.6954 18.8298 13.7286 18.5913 13.7416 18.2435C13.7607 17.7323 14.0229 17.2591 14.4659 17.0033C14.909 16.7474 15.4499 16.757 15.9022 16.996C16.21 17.1587 16.4331 17.2491 16.6531 17.2781C17.1352 17.3416 17.6227 17.2109 18.0085 16.9149C18.2978 16.6929 18.5114 16.323 18.9385 15.5832C19.3656 14.8435 19.5791 14.4736 19.6267 14.112C19.6902 13.63 19.5596 13.1424 19.2636 12.7567C19.1285 12.5806 18.9386 12.4326 18.6438 12.2474C18.2106 11.9752 17.9319 11.5115 17.932 10.9999C17.932 10.4883 18.2107 10.0247 18.6438 9.75257C18.9386 9.56736 19.1285 9.41933 19.2637 9.24323C19.5597 8.85748 19.6903 8.36994 19.6268 7.88787C19.5792 7.52632 19.3657 7.15643 18.9386 6.41665C18.5114 5.67686 18.2979 5.30697 18.0086 5.08498C17.6228 4.78898 17.1353 4.65834 16.6532 4.72181C16.4332 4.75078 16.21 4.84122 15.9023 5.00388C15.45 5.24294 14.9091 5.2525 14.466 4.99669C14.0229 4.74089 13.7608 4.26767 13.7416 3.75642C13.7286 3.40858 13.6954 3.17012 13.6104 2.96506C13.4244 2.51584 13.0675 2.15894 12.6183 1.97287Z" stroke="white" stroke-width="1.5"/>
</svg>
