<svg width="220" height="220" viewBox="0 0 220 220" fill="none" xmlns="http://www.w3.org/2000/svg">
<g filter="url(#filter0_f_2001_938)">
<circle cx="110" cy="110" r="50" fill="#F2A01C" fill-opacity="0.11"/>
</g>
<path d="M72.5 103.403C72.5 90.0795 72.5 83.4178 74.073 81.1767C75.646 78.9356 81.9097 76.7915 94.4371 72.5033L96.8238 71.6863C103.354 69.451 106.619 68.3333 110 68.3333C113.381 68.3333 116.646 69.451 123.176 71.6863L125.563 72.5033C138.09 76.7915 144.354 78.9356 145.927 81.1767C147.5 83.4178 147.5 90.0795 147.5 103.403C147.5 105.415 147.5 107.598 147.5 109.964C147.5 133.456 129.838 144.856 118.756 149.697C115.75 151.01 114.247 151.667 110 151.667C105.753 151.667 104.25 151.01 101.244 149.697C90.1623 144.856 72.5 133.456 72.5 109.964C72.5 107.598 72.5 105.415 72.5 103.403Z" stroke="#F2A01C" stroke-width="4"/>
<path d="M110 93.3333V110" stroke="#F2A01C" stroke-width="4" stroke-linecap="round"/>
<circle cx="110" cy="121" r="3" fill="#F2A01C"/>
<defs>
<filter id="filter0_f_2001_938" x="0" y="0" width="220" height="220" filterUnits="userSpaceOnUse" color-interpolation-filters="sRGB">
<feFlood flood-opacity="0" result="BackgroundImageFix"/>
<feBlend mode="normal" in="SourceGraphic" in2="BackgroundImageFix" result="shape"/>
<feGaussianBlur stdDeviation="30" result="effect1_foregroundBlur_2001_938"/>
</filter>
</defs>
</svg>
