<svg width="22" height="22" viewBox="0 0 22 22" fill="none" xmlns="http://www.w3.org/2000/svg">
    <path d="M2.75 9.54858C2.75 6.61746 2.75 5.1519 3.09606 4.65885C3.44211 4.16581 4.82013 3.69411 7.57617 2.75071L8.10125 2.57097C9.5379 2.0792 10.2562 1.83331 11 1.83331C11.7438 1.83331 12.4621 2.0792 13.8988 2.57097L14.4238 2.75071C17.1799 3.69411 18.5579 4.16581 18.9039 4.65885C19.25 5.1519 19.25 6.61746 19.25 9.54858C19.25 9.99132 19.25 10.4714 19.25 10.9921C19.25 16.1603 15.3643 18.6683 12.9263 19.7333C12.265 20.0222 11.9343 20.1666 11 20.1666C10.0657 20.1666 9.73501 20.0222 9.07368 19.7333C6.63571 18.6683 2.75 16.1603 2.75 10.9921C2.75 10.4714 2.75 9.99132 2.75 9.54858Z" stroke="white" stroke-width="1.5"/>
    <path d="M13.75 11L11 11M11 11L8.25 11M11 11L11 8.25M11 11L11 13.75" stroke="white" stroke-width="1.5" stroke-linecap="round"/>
</svg>
