<svg width="100" height="100" viewBox="0 0 100 100" fill="none" xmlns="http://www.w3.org/2000/svg">
<path d="M12.5 43.4027C12.5 30.0795 12.5 23.4178 14.073 21.1767C15.646 18.9356 21.9097 16.7915 34.4371 12.5033L36.8238 11.6863C43.3541 9.45101 46.6192 8.33334 50 8.33334C53.3808 8.33334 56.6459 9.45101 63.1762 11.6863L65.5629 12.5033C78.0903 16.7915 84.354 18.9356 85.927 21.1767C87.5 23.4178 87.5 30.0795 87.5 43.4027C87.5 45.4152 87.5 47.5976 87.5 49.964C87.5 73.456 69.8377 84.8562 58.756 89.697C55.7499 91.0101 54.2469 91.6667 50 91.6667C45.7531 91.6667 44.2501 91.0101 41.244 89.697C30.1623 84.8562 12.5 73.456 12.5 49.964C12.5 47.5976 12.5 45.4152 12.5 43.4027Z" stroke="#3FD590" stroke-width="4"/>
<path d="M39.5833 51.6667L45.5357 58.3333L60.4167 41.6667" stroke="#3FD590" stroke-width="4" stroke-linecap="round" stroke-linejoin="round"/>
</svg>
