<svg width="32" height="32" viewBox="0 0 32 32" fill="none" xmlns="http://www.w3.org/2000/svg">
<rect width="32" height="32" rx="6" fill="#3FD590" fill-opacity="0.13"/>
<path d="M16.9055 23.8232L17.3358 24.0778V24.0778L16.9055 23.8232ZM17.3573 23.0599L16.927 22.8053V22.8053L17.3573 23.0599ZM14.6427 23.0599L14.2124 23.3146V23.3146L14.6427 23.0599ZM15.0944 23.8232L15.5247 23.5685H15.5247L15.0944 23.8232ZM7.98384 19.2613L8.44578 19.0699H8.44578L7.98384 19.2613ZM12.4913 21.8263L12.4827 22.3262V22.3262L12.4913 21.8263ZM10.2388 21.5162L10.0475 21.9782L10.0475 21.9782L10.2388 21.5162ZM24.0162 19.2613L24.4781 19.4526V19.4526L24.0162 19.2613ZM19.5087 21.8263L19.5 21.3264V21.3264L19.5087 21.8263ZM21.7612 21.5162L21.9525 21.9782H21.9525L21.7612 21.5162ZM22.3437 8.28075L22.0825 8.70707H22.0825L22.3437 8.28075ZM23.7193 9.65634L24.1457 9.39509V9.39509L23.7193 9.65634ZM9.65626 8.28075L9.39501 7.85443V7.85443L9.65626 8.28075ZM8.28067 9.65634L7.85435 9.39509H7.85435L8.28067 9.65634ZM13.8357 22.0083L14.087 21.5761L14.087 21.5761L13.8357 22.0083ZM16.9055 23.8232L17.3358 24.0778L17.7876 23.3146L17.3573 23.0599L16.927 22.8053L16.4753 23.5685L16.9055 23.8232ZM14.6427 23.0599L14.2124 23.3146L14.6641 24.0778L15.0944 23.8232L15.5247 23.5685L15.0729 22.8053L14.6427 23.0599ZM16.9055 23.8232L16.4753 23.5685C16.2662 23.9216 15.7337 23.9216 15.5247 23.5685L15.0944 23.8232L14.6641 24.0778C15.2604 25.0852 16.7396 25.0852 17.3358 24.0778L16.9055 23.8232ZM14.75 7.66675V8.16675H17.25V7.66675V7.16675H14.75V7.66675ZM24.3333 14.7501H23.8333V15.5834H24.3333H24.8333V14.7501H24.3333ZM7.66667 15.5834H8.16667V14.7501H7.66667H7.16667V15.5834H7.66667ZM7.66667 15.5834H7.16667C7.16667 16.5473 7.1664 17.2952 7.20747 17.8973C7.24886 18.5038 7.33387 18.9987 7.5219 19.4526L7.98384 19.2613L8.44578 19.0699C8.31663 18.7581 8.24306 18.3848 8.20515 17.8292C8.16694 17.2691 8.16667 16.561 8.16667 15.5834H7.66667ZM12.4913 21.8263L12.4999 21.3264C11.4537 21.3083 10.884 21.2423 10.4302 21.0543L10.2388 21.5162L10.0475 21.9782C10.6942 22.2461 11.4366 22.3082 12.4827 22.3262L12.4913 21.8263ZM7.98384 19.2613L7.5219 19.4526C7.99554 20.5961 8.90401 21.5045 10.0475 21.9782L10.2388 21.5162L10.4302 21.0543C9.53173 20.6822 8.81792 19.9684 8.44578 19.0699L7.98384 19.2613ZM24.3333 15.5834H23.8333C23.8333 16.561 23.8331 17.2691 23.7948 17.8292C23.7569 18.3848 23.6834 18.7581 23.5542 19.0699L24.0162 19.2613L24.4781 19.4526C24.6661 18.9987 24.7511 18.5038 24.7925 17.8973C24.8336 17.2952 24.8333 16.5473 24.8333 15.5834H24.3333ZM19.5087 21.8263L19.5173 22.3262C20.5634 22.3082 21.3058 22.2461 21.9525 21.9782L21.7612 21.5162L21.5698 21.0543C21.116 21.2423 20.5462 21.3083 19.5 21.3264L19.5087 21.8263ZM24.0162 19.2613L23.5542 19.0699C23.1821 19.9684 22.4683 20.6822 21.5698 21.0543L21.7612 21.5162L21.9525 21.9782C23.096 21.5045 24.0045 20.5961 24.4781 19.4526L24.0162 19.2613ZM17.25 7.66675V8.16675C18.6236 8.16675 19.6187 8.16728 20.3968 8.24125C21.1674 8.31452 21.6733 8.4563 22.0825 8.70707L22.3437 8.28075L22.605 7.85443C22.0123 7.49119 21.3352 7.32597 20.4914 7.24574C19.655 7.16622 18.6042 7.16675 17.25 7.16675V7.66675ZM24.3333 14.7501H24.8333C24.8333 13.3958 24.8339 12.345 24.7543 11.5087C24.6741 10.6649 24.5089 9.98783 24.1457 9.39509L23.7193 9.65634L23.293 9.91759C23.5438 10.3268 23.6856 10.8327 23.7588 11.6033C23.8328 12.3814 23.8333 13.3765 23.8333 14.7501H24.3333ZM22.3437 8.28075L22.0825 8.70707C22.5759 9.0094 22.9907 9.42422 23.293 9.91759L23.7193 9.65634L24.1457 9.39509C23.7609 8.76716 23.2329 8.23922 22.605 7.85443L22.3437 8.28075ZM14.75 7.66675V7.16675C13.3958 7.16675 12.345 7.16622 11.5086 7.24574C10.6648 7.32597 9.98775 7.49119 9.39501 7.85443L9.65626 8.28075L9.91751 8.70707C10.3267 8.4563 10.8326 8.31452 11.6032 8.24125C12.3813 8.16728 13.3764 8.16675 14.75 8.16675V7.66675ZM7.66667 14.7501H8.16667C8.16667 13.3765 8.1672 12.3814 8.24117 11.6033C8.31444 10.8327 8.45622 10.3268 8.70699 9.91759L8.28067 9.65634L7.85435 9.39509C7.49111 9.98783 7.32589 10.6649 7.24566 11.5087C7.16614 12.345 7.16667 13.3958 7.16667 14.7501H7.66667ZM9.65626 8.28075L9.39501 7.85443C8.76708 8.23922 8.23914 8.76716 7.85435 9.39509L8.28067 9.65634L8.70699 9.91759C9.00932 9.42422 9.42414 9.00941 9.91751 8.70707L9.65626 8.28075ZM14.6427 23.0599L15.0729 22.8053C14.9026 22.5174 14.7575 22.2712 14.6174 22.079C14.4711 21.8783 14.3087 21.705 14.087 21.5761L13.8357 22.0083L13.5843 22.4405C13.644 22.4752 13.7099 22.5317 13.8092 22.668C13.9147 22.8127 14.0324 23.0105 14.2124 23.3146L14.6427 23.0599ZM12.4913 21.8263L12.4827 22.3262C12.8463 22.3325 13.0849 22.3371 13.2687 22.3575C13.4432 22.3768 13.5262 22.4067 13.5843 22.4405L13.8357 22.0083L14.087 21.5761C13.8637 21.4462 13.6288 21.3912 13.3787 21.3635C13.1379 21.3369 12.845 21.3323 12.4999 21.3264L12.4913 21.8263ZM17.3573 23.0599L17.7876 23.3146C17.9676 23.0105 18.0853 22.8127 18.1907 22.668C18.29 22.5317 18.3559 22.4752 18.4157 22.4405L18.1643 22.0083L17.9129 21.5761C17.6913 21.705 17.5288 21.8783 17.3826 22.079C17.2425 22.2712 17.0974 22.5174 16.927 22.8053L17.3573 23.0599ZM19.5087 21.8263L19.5 21.3264C19.155 21.3323 18.8621 21.3369 18.6212 21.3635C18.3711 21.3912 18.1362 21.4462 17.9129 21.5761L18.1643 22.0083L18.4157 22.4405C18.4738 22.4067 18.5568 22.3768 18.7313 22.3575C18.9151 22.3371 19.1537 22.3325 19.5173 22.3262L19.5087 21.8263Z" fill="#3FD590"/>
<path d="M12.6667 15.1667H12.6742M15.9925 15.1667H16M19.3258 15.1667H19.3333" stroke="#3FD590" stroke-width="2" stroke-linecap="round" stroke-linejoin="round"/>
</svg>
