<svg width="22" height="22" viewBox="0 0 22 22" fill="none" xmlns="http://www.w3.org/2000/svg">
<path d="M1.83333 11C1.83333 7.54305 1.83333 5.81457 2.90727 4.74063C3.98121 3.66669 5.70969 3.66669 9.16666 3.66669H12.8333C16.2903 3.66669 18.0188 3.66669 19.0927 4.74063C20.1667 5.81457 20.1667 7.54305 20.1667 11C20.1667 14.457 20.1667 16.1855 19.0927 17.2594C18.0188 18.3334 16.2903 18.3334 12.8333 18.3334H9.16666C5.70969 18.3334 3.98121 18.3334 2.90727 17.2594C1.83333 16.1855 1.83333 14.457 1.83333 11Z" stroke="white" stroke-width="1.5"/>
<path d="M8.25001 11C8.25001 11.5062 7.8396 11.9166 7.33334 11.9166C6.82708 11.9166 6.41667 11.5062 6.41667 11C6.41667 10.4937 6.82708 10.0833 7.33334 10.0833C7.8396 10.0833 8.25001 10.4937 8.25001 11Z" fill="white"/>
<path d="M11.9167 11C11.9167 11.5062 11.5063 11.9166 11 11.9166C10.4937 11.9166 10.0833 11.5062 10.0833 11C10.0833 10.4937 10.4937 10.0833 11 10.0833C11.5063 10.0833 11.9167 10.4937 11.9167 11Z" fill="white"/>
<path d="M15.5833 11C15.5833 11.5062 15.1729 11.9166 14.6667 11.9166C14.1604 11.9166 13.75 11.5062 13.75 11C13.75 10.4937 14.1604 10.0833 14.6667 10.0833C15.1729 10.0833 15.5833 10.4937 15.5833 11Z" fill="white"/>
</svg>
